<?xml version="1.0" standalone="no"?>
<!DOCTYPE svg PUBLIC "-//W3C//DTD SVG 20010904//EN"
 "http://www.w3.org/TR/2001/REC-SVG-20010904/DTD/svg10.dtd">
<svg version="1.0" xmlns="http://www.w3.org/2000/svg"
 width="721.000000pt" height="721.000000pt" viewBox="0 0 721.000000 721.000000"
 preserveAspectRatio="xMidYMid meet">
<metadata>
Created by potrace 1.14, written by Peter Selinger 2001-2017
</metadata>
<g transform="translate(0.000000,721.000000) scale(0.100000,-0.100000)"
fill="#000000" stroke="none">
<path d="M2972 7102 c-59 -25 -63 -30 -76 -72 -16 -54 -35 -61 -79 -28 -48 36
-66 43 -33 13 l29 -27 -73 -73 -73 -74 -56 50 -56 50 -118 -121 c-66 -67 -117
-123 -115 -124 113 -85 322 -259 400 -334 31 -30 61 -51 67 -48 7 4 11 -1 11
-13 0 -12 -3 -21 -7 -21 -7 0 -79 -88 -266 -321 -418 -524 -634 -789 -651
-801 -17 -11 -15 -966 2 -976 6 -5 21 -46 31 -93 10 -46 24 -95 29 -109 10
-22 11 -23 13 -5 2 16 7 -81 20 -418 0 -9 4 -15 9 -12 4 3 11 -3 14 -12 11
-27 20 -199 12 -220 -7 -17 -8 -17 -19 2 -16 26 -37 30 -37 7 0 -10 -4 -22 -9
-27 -5 -6 -11 -90 -13 -187 -3 -160 -5 -178 -22 -191 -11 -8 -16 -19 -12 -25
5 -8 -3 -12 -25 -12 -28 0 -31 -3 -25 -22 3 -13 6 -30 6 -38 1 -32 14 -40 47
-28 16 6 38 8 48 4 17 -6 17 -7 1 -19 -9 -7 -20 -25 -24 -40 l-7 -28 -27 20
c-14 12 -29 21 -32 21 -3 0 -6 -38 -6 -85 l0 -85 40 -20 c22 -11 59 -20 84
-20 38 0 48 -5 75 -35 17 -20 31 -37 31 -39 0 -2 -31 -23 -68 -48 l-68 -45
-34 29 c-75 64 -70 80 -70 -216 0 -222 2 -265 15 -269 11 -5 12 -1 4 20 -12
32 -4 41 43 47 31 4 37 1 40 -16 5 -31 71 -80 115 -85 70 -8 78 -10 75 -23 -2
-8 3 -10 15 -6 14 6 13 2 -4 -14 -13 -11 -23 -26 -23 -33 0 -7 24 -26 53 -44
57 -34 123 -84 201 -153 28 -25 88 -72 132 -103 l81 -58 -4 -89 c-5 -89 -5
-89 21 -96 14 -3 23 -10 20 -15 -7 -12 13 -11 37 2 11 5 33 12 50 14 25 3 29
1 24 -15 -3 -10 -1 -21 4 -24 6 -4 7 -14 4 -24 -6 -16 -5 -16 14 0 11 10 26
18 34 18 9 -1 5 -8 -10 -21 -21 -17 -22 -22 -10 -30 13 -8 6 -13 -16 -10 -5 1
1 -7 15 -18 24 -19 24 -20 6 -40 -10 -11 -15 -27 -12 -38 6 -17 95 -77 106
-72 3 2 33 -12 68 -30 63 -35 67 -40 65 -108 0 -7 4 -11 11 -10 6 1 12 -5 12
-13 1 -8 2 -19 3 -24 0 -5 8 -3 16 4 21 17 19 54 -4 74 -11 10 -17 24 -15 31
4 8 -16 27 -51 50 -32 20 -54 39 -51 42 3 4 -2 16 -13 27 -15 17 -20 41 -23
119 -3 53 -2 97 1 97 3 0 21 -10 40 -21 32 -19 36 -20 47 -5 6 9 18 14 27 11
13 -6 13 -10 0 -36 -17 -34 -11 -48 12 -29 12 10 21 10 44 0 23 -9 35 -9 57 2
32 16 58 13 89 -8 26 -19 32 -18 40 6 4 13 15 20 31 20 13 0 24 5 24 10 0 6 7
10 15 10 31 0 12 -20 -72 -75 -87 -58 -160 -95 -148 -76 3 6 2 11 -4 11 -5 0
-22 13 -38 30 -44 47 -56 40 -52 -32 l4 -63 -35 2 c-33 1 -34 1 -15 -13 11 -8
31 -18 45 -21 35 -9 70 -33 70 -48 0 -7 6 -18 14 -24 20 -17 39 16 25 42 -8
14 -6 17 12 17 15 0 19 -5 15 -15 -3 -8 0 -15 6 -15 6 0 8 -3 5 -7 -16 -15 34
-35 73 -28 27 5 49 2 71 -9 39 -19 39 -19 39 -3 0 8 -9 22 -20 32 -22 20 -26
35 -9 35 15 0 69 52 69 67 0 20 18 15 30 -7 6 -11 15 -20 21 -20 5 0 27 -11
50 -25 22 -14 45 -23 52 -20 7 4 -4 -8 -23 -25 -25 -22 -41 -29 -57 -25 -38 9
-26 -12 25 -43 l48 -30 17 21 c9 12 17 16 17 9 0 -7 11 -12 24 -12 43 0 57
-10 45 -31 -11 -22 -39 -23 -89 -5 -35 13 -80 4 -80 -16 0 -4 -9 -8 -20 -8
-11 0 -20 -7 -20 -16 0 -11 -6 -14 -20 -9 -15 5 -20 2 -20 -12 0 -28 -20 -45
-36 -32 -10 8 -18 7 -29 -5 -21 -20 -48 -20 -87 0 -29 15 -33 15 -100 -16 -74
-34 -100 -31 -79 8 15 29 14 32 -13 32 -13 0 -26 3 -29 8 -2 4 -2 0 0 -8 3 -8
5 -19 6 -25 3 -15 -42 -18 -76 -4 -50 21 -85 71 -56 81 6 2 -8 21 -31 41 -32
30 -39 41 -30 52 20 24 2 80 -33 100 -60 33 -231 150 -262 177 -37 34 -55 35
-55 4 0 -22 -3 -23 -44 -21 -35 3 -65 17 -153 76 -59 39 -125 85 -145 101 -21
16 -44 28 -50 25 -7 -2 -26 5 -43 17 -40 28 -82 33 -82 9 0 -10 9 -29 21 -42
l21 -24 -25 13 c-14 7 -47 28 -74 47 -35 24 -59 33 -88 33 -28 0 -62 12 -113
40 -40 22 -81 40 -91 40 -11 0 -35 11 -55 24 -28 19 -36 21 -36 9 0 -8 52 -54
116 -103 103 -79 151 -121 151 -134 0 -3 -60 33 -132 80 -73 46 -136 84 -140
84 -4 0 2 -18 13 -40 12 -23 19 -43 17 -46 -11 -10 -56 17 -128 76 l-75 61 80
-78 c45 -43 166 -143 270 -222 105 -80 244 -188 309 -240 65 -53 164 -127 219
-166 94 -65 103 -75 140 -145 46 -88 67 -113 126 -151 38 -25 55 -29 113 -29
76 0 93 -10 124 -75 34 -72 143 -135 234 -135 54 0 127 -27 231 -85 202 -115
239 -118 337 -30 33 31 78 63 99 71 21 9 48 25 62 35 20 16 41 19 123 19 117
0 119 1 183 126 27 52 55 90 87 117 46 38 53 41 260 84 222 46 246 56 285 113
20 29 23 46 23 137 0 150 22 185 127 202 69 11 96 23 133 57 14 13 53 37 86
53 86 41 143 117 209 276 51 124 141 236 279 348 146 119 418 394 447 453 25
50 30 117 14 194 -6 33 -3 40 65 115 65 74 194 254 298 416 30 46 46 84 52
124 6 35 9 597 9 1384 l0 1326 -27 30 c-15 17 -52 46 -82 65 -30 19 -100 78
-155 130 -55 53 -114 106 -132 118 l-32 23 -157 -87 c-87 -47 -168 -93 -181
-101 -23 -15 -23 -18 -21 -164 1 -82 4 -153 7 -158 7 -10 66 -41 81 -41 13 0
13 12 -2 47 -14 34 -36 173 -27 173 3 0 9 -19 13 -42 4 -23 11 -45 17 -49 10
-6 62 -179 54 -179 -3 0 -71 39 -152 86 -82 48 -152 89 -156 91 -4 3 -3 11 4
19 8 9 10 54 7 146 l-5 133 -29 18 c-16 10 -81 44 -144 77 -63 32 -130 70
-149 84 -19 14 -40 26 -46 26 -5 0 -33 -27 -60 -61 -77 -95 -112 -129 -128
-129 -23 0 -31 -88 -23 -254 5 -128 -4 -339 -16 -351 -2 -3 -23 3 -46 12 -55
21 -86 8 -112 -49 -21 -46 -121 -138 -151 -138 -17 0 -19 8 -19 84 0 77 -2 87
-27 118 -16 18 -32 35 -36 36 -4 2 -21 15 -36 28 -16 13 -38 24 -49 24 -40 0
-52 36 -52 151 0 103 -1 107 -30 144 -56 70 -58 71 -152 22 -46 -23 -90 -42
-98 -41 -8 1 -20 2 -26 3 -11 1 -29 57 -24 76 1 6 3 16 3 24 0 7 15 22 33 33
36 21 36 36 -1 78 -12 14 -41 57 -65 95 -25 39 -61 93 -81 120 -20 28 -53 81
-73 118 -35 63 -39 78 -45 176 -7 102 -9 110 -40 149 -18 22 -39 43 -45 45 -7
3 -50 36 -97 74 -46 38 -102 80 -124 93 -22 13 -63 44 -92 69 -87 77 -136 112
-192 137 -66 30 -80 29 -159 -4z m-19 -309 c16 -13 38 -23 50 -23 15 0 3 -11
-38 -33 -124 -68 -138 -80 -194 -176 -29 -50 -57 -91 -62 -91 -5 0 -9 -10 -9
-22 0 -13 -4 -18 -9 -12 -14 16 -82 195 -76 204 7 11 -20 72 -28 63 -4 -3 -6
9 -4 28 2 27 7 33 21 31 13 -3 17 1 13 11 -9 23 4 29 20 9 12 -15 13 -14 7 9
-7 35 11 46 38 22 12 -10 18 -12 14 -5 -4 6 -5 12 -3 12 5 0 67 -28 92 -42 61
-35 66 -36 91 -24 22 10 24 16 20 50 -6 42 -10 43 57 -11z m82 27 c3 -5 1 -10
-4 -10 -6 0 -11 5 -11 10 0 6 2 10 4 10 3 0 8 -4 11 -10z m39 -31 c-8 -14 -21
-11 -21 5 0 8 6 12 14 9 7 -3 10 -9 7 -14z m2313 -841 c-2 -13 -4 -3 -4 22 0
25 2 35 4 23 2 -13 2 -33 0 -45z m-1056 -1150 l57 -24 -69 -42 c-38 -24 -71
-47 -74 -51 -3 -5 31 -48 75 -97 44 -48 80 -91 80 -95 0 -5 -12 -15 -27 -22
-23 -12 -44 -12 -118 -3 -60 8 -89 16 -87 24 1 7 -3 12 -9 12 -5 0 -8 4 -5 8
2 4 2 13 -2 19 -5 8 -41 -10 -107 -53 -55 -35 -105 -64 -112 -64 -11 0 -170
88 -229 126 -11 8 -24 11 -29 7 -4 -5 -6 -2 -3 6 2 7 71 48 153 90 83 42 188
99 235 127 47 28 98 58 115 67 32 16 36 15 156 -35z m1808 -316 l1 -64 51 45
c52 46 71 50 85 19 10 -22 22 -1250 13 -1278 -4 -12 -53 -48 -121 -88 -110
-66 -115 -71 -170 -155 -31 -47 -68 -110 -82 -139 -24 -48 -28 -51 -47 -41
-12 6 -32 9 -45 6 -28 -5 -30 5 -7 44 18 31 21 32 68 33 24 1 31 6 33 26 2 14
9 31 15 39 10 12 9 14 -5 8 -12 -4 -28 5 -52 29 l-35 36 -107 -51 c-59 -28
-108 -51 -109 -51 -2 0 -20 29 -39 65 -20 35 -41 67 -46 70 -6 3 -10 45 -10
93 l0 87 -63 46 c-34 26 -77 54 -94 63 l-33 17 0 135 c0 119 2 135 18 140 71
23 72 24 73 73 1 54 16 157 18 124 1 -28 13 -28 70 -2 25 11 50 18 57 15 8 -3
14 30 20 117 5 76 10 104 12 74 3 -44 5 -47 25 -41 12 4 31 8 42 9 18 1 20 10
23 73 l3 71 -56 35 -55 36 0 68 c0 107 10 162 29 162 20 0 57 30 64 50 2 8 8
-18 12 -58 7 -66 9 -71 22 -53 7 11 56 45 108 76 52 31 95 59 95 63 0 4 25 20
55 36 30 15 57 32 61 37 3 5 10 7 15 4 5 -4 9 -2 9 3 0 5 14 12 30 16 22 4 30
11 31 28 3 38 17 -83 18 -150z m-1622 106 c13 -12 23 -32 23 -44 0 -33 34 -49
70 -34 16 7 31 18 34 26 10 26 73 16 154 -26 112 -57 109 -54 67 -80 -20 -12
-47 -22 -61 -22 -13 0 -21 -4 -18 -9 6 -11 -75 -63 -132 -85 -39 -15 -44 -15
-68 1 -14 10 -26 14 -26 11 0 -4 -10 -2 -21 5 -15 8 -19 8 -15 0 10 -16 1 -14
-44 9 -34 17 -40 25 -45 65 -9 60 -4 71 50 97 25 12 45 25 45 30 0 4 -15 15
-32 24 -45 23 -59 35 -52 45 10 16 47 9 71 -13z m-838 -270 c0 -117 -3 -207
-6 -200 -6 15 -30 16 -35 2 -2 -6 -11 -4 -23 5 -11 9 -14 14 -7 10 6 -3 12 -1
12 6 0 6 -8 9 -20 6 -11 -3 -22 -1 -26 4 -9 16 -6 132 5 138 19 12 31 63 31
135 0 76 6 89 45 99 11 2 21 5 23 6 1 0 2 -95 1 -211z m886 -188 c4 -6 32 -25
62 -42 l55 -31 -35 -19 c-20 -10 -38 -22 -42 -28 -7 -12 -87 28 -130 65 l-30
26 30 -6 c21 -4 26 -3 16 4 -12 8 -12 12 -2 25 15 18 66 22 76 6z m-950 -30
c-3 -5 1 -10 9 -10 9 0 16 -9 16 -20 0 -11 -5 -20 -11 -20 -5 0 -8 4 -4 9 3 6
-2 14 -11 19 -14 8 -13 32 2 32 3 0 2 -4 -1 -10z m-1334 -257 c10 -42 10 -106
0 -122 -6 -10 -15 -4 -37 24 -23 30 -29 50 -32 103 l-5 66 34 -22 c20 -12 37
-32 40 -49z m1207 -9 c2 -14 1 -16 -6 -5 -8 11 -10 11 -15 0 -3 -8 -6 -4 -6 9
-1 28 23 25 27 -4z m-110 -36 c7 -7 12 -20 12 -31 0 -15 -5 -17 -27 -13 -37 8
-65 -9 -34 -19 14 -4 20 -12 17 -21 -3 -8 -1 -14 3 -14 5 0 18 -3 28 -7 16 -6
16 -5 4 11 -13 16 -12 17 11 11 15 -4 29 -2 32 4 8 13 26 15 26 3 0 -4 -16
-16 -35 -26 -53 -29 -63 -45 -40 -62 17 -13 17 -14 1 -14 -9 0 -14 -4 -11 -10
3 -5 2 -16 -2 -24 -6 -11 -18 -7 -60 20 -29 19 -53 39 -53 45 0 5 5 7 11 3 7
-4 7 1 -1 16 -19 36 3 45 39 15 17 -15 38 -24 46 -21 22 8 18 26 -6 26 -35 0
-94 39 -106 71 -13 32 -4 44 27 34 11 -4 20 -2 20 4 0 15 83 14 98 -1z m-138
-90 c0 -13 -9 -10 -61 18 -27 15 -46 31 -43 36 6 10 104 -41 104 -54z m1887
-127 c-2 -34 -4 -38 -20 -29 -10 5 -16 15 -13 21 3 7 9 20 12 30 11 31 24 18
21 -22z m-2707 -368 c0 -5 -14 -24 -30 -43 -30 -35 -31 -18 -2 28 14 21 32 30
32 15z m-72 -30 c2 -26 2 -26 -18 -8 -25 22 -25 30 -2 32 12 1 18 -6 20 -24z
m3922 -92 c-11 -41 -24 -62 -113 -196 -94 -141 -117 -172 -117 -156 0 32 151
304 193 349 38 40 48 41 37 3z m-732 -501 c28 -17 43 -40 27 -40 -7 0 -74 35
-95 49 -29 21 34 12 68 -9z m-5 -53 c24 -12 25 -15 10 -20 -10 -3 -40 -18 -68
-34 l-50 -29 -53 27 -52 27 27 20 c16 10 34 17 42 14 8 -3 11 0 7 7 -9 14 -7
14 44 -4 62 -22 69 -18 30 16 l-35 31 35 -20 c20 -12 48 -27 63 -35z m178 -79
c34 -27 43 -30 57 -20 48 34 61 36 87 12 32 -30 31 -34 -5 -60 -24 -17 -39
-21 -65 -16 -21 4 -35 13 -35 21 0 23 -21 18 -77 -20 -29 -19 -59 -35 -68 -35
-18 0 -119 49 -113 55 8 8 163 94 171 94 5 1 26 -13 48 -31z m-3189 -65 c42
-22 65 -40 60 -45 -7 -7 -115 52 -141 77 -13 14 18 1 81 -32z m-15 -29 c24
-14 41 -29 38 -35 -7 -10 -24 -3 -74 35 -45 33 -21 34 36 0z m3016 -56 c13 -2
14 -5 5 -15 -10 -9 -24 -10 -57 -2 -39 9 -45 7 -58 -11 -25 -36 -65 -15 -49
26 6 15 27 15 159 2z m-3172 -204 c18 -22 89 -56 104 -50 7 2 16 -2 19 -11 4
-9 14 -13 26 -10 17 4 20 0 20 -23 0 -32 19 -49 137 -121 73 -44 91 -62 53
-52 -25 7 -26 -11 -4 -52 24 -44 34 -95 27 -133 -4 -27 -9 -33 -24 -29 -11 3
-19 0 -20 -6 0 -7 -5 -2 -11 11 -13 25 -28 29 -28 7 0 -11 -17 -4 -57 25 -45
31 -68 40 -103 42 -46 1 -78 21 -153 91 l-30 28 6 97 c4 53 7 121 7 150 0 54
8 63 31 36z m2779 -206 c0 -15 -23 -20 -36 -7 -11 12 -9 14 11 14 14 0 25 -3
25 -7z m-1840 -148 c9 0 16 -8 16 -19 0 -11 -5 -17 -11 -14 -21 12 -45 37 -45
47 0 6 5 5 12 -2 7 -7 19 -12 28 -12z m-231 -66 c34 -20 64 -40 66 -44 7 -12
-151 -91 -168 -84 -8 3 -17 -2 -21 -11 -5 -14 -9 -14 -35 -1 -18 10 -28 22
-27 33 2 10 -6 24 -16 33 -19 15 -19 16 -1 33 20 17 123 77 135 77 4 0 34 -16
67 -36z m-468 -46 c10 -19 10 -19 -15 -3 -28 19 -35 38 -11 29 9 -4 20 -15 26
-26z m1063 -27 l69 -39 -34 -21 c-19 -11 -53 -31 -76 -43 l-41 -22 -77 36 -77
37 42 26 c84 53 105 65 115 65 6 0 41 -18 79 -39z m103 -71 c1 -11 -2 -18 -8
-15 -11 7 -12 35 -1 35 4 0 8 -9 9 -20z m348 -33 c11 -6 33 -10 49 -9 45 4 50
-18 10 -46 -19 -13 -43 -23 -52 -24 -38 0 -83 10 -106 26 -14 9 -32 16 -41 16
-17 0 -21 -25 -5 -35 12 -7 12 -16 1 -33 -6 -10 -13 -10 -32 -2 -18 8 -39 8
-84 -2 -59 -13 -60 -14 -61 -48 -1 -19 4 -38 10 -42 7 -5 6 -8 -4 -8 -8 0 -48
16 -87 37 -53 26 -70 39 -63 48 6 7 20 10 33 8 33 -6 83 15 69 29 -9 9 -17 7
-32 -7 -11 -10 -23 -15 -27 -11 -4 3 10 20 30 37 20 17 37 36 37 42 0 16 114
14 154 -2 27 -11 34 -9 70 18 43 31 83 33 131 8z m344 -25 c3 1 16 -1 29 -6
35 -12 29 -50 -10 -69 -31 -15 -35 -14 -68 5 -50 30 -70 49 -64 60 11 17 48
25 78 17 15 -5 31 -8 35 -7z m-452 -88 c-3 -3 -12 -4 -19 -1 -8 3 -5 6 6 6 11
1 17 -2 13 -5z m-462 -164 c8 -14 -71 -51 -92 -43 -10 3 -31 15 -46 26 -22 15
-26 22 -15 28 7 5 21 6 30 3 14 -4 16 -1 11 12 -5 14 -3 15 15 5 29 -16 45
-14 38 5 -4 11 1 10 24 -6 16 -11 32 -25 35 -30z m-338 16 c38 -44 -3 -43 -45
0 l-23 24 24 0 c13 0 33 -11 44 -24z m458 -81 c39 -19 65 -35 60 -35 -6 0 -28
-16 -48 -35 -22 -21 -47 -35 -62 -35 -26 0 -99 33 -109 48 -3 5 15 24 39 41
25 18 45 36 45 42 0 12 -6 14 75 -26z m286 -61 c44 -26 79 -53 79 -60 0 -17
-80 -74 -104 -74 -29 0 -81 36 -66 45 7 5 9 21 5 46 -4 22 -8 47 -10 57 -3 18
2 32 12 32 3 0 41 -21 84 -46z m-137 -209 c9 -24 -1 -38 -55 -73 -45 -29 -51
-31 -65 -17 -9 8 -22 15 -30 15 -8 0 -14 4 -14 10 0 5 7 7 15 4 10 -4 28 7 49
29 18 19 44 37 57 40 13 2 27 5 30 6 4 0 9 -6 13 -14z"/>
<path d="M5515 2400 c-7 -11 44 -34 53 -25 6 5 -27 34 -40 35 -4 0 -10 -5 -13
-10z"/>
<path d="M5397 2293 c-4 -3 -7 -11 -7 -17 0 -6 5 -5 12 2 6 6 9 14 7 17 -3 3
-9 2 -12 -2z"/>
<path d="M3816 1449 c-14 -11 -26 -25 -26 -30 0 -23 84 -3 102 25 20 31 -37
35 -76 5z"/>
<path d="M5378 6418 c5 -5 16 -8 23 -6 8 3 3 7 -10 11 -17 4 -21 3 -13 -5z"/>
<path d="M5440 6401 c0 -15 51 -51 63 -44 6 3 7 1 3 -5 -4 -6 14 -21 44 -36
27 -14 50 -23 50 -20 0 2 14 -3 31 -11 17 -9 33 -15 35 -12 2 2 -40 30 -93 61
-129 76 -133 78 -133 67z"/>
<path d="M5676 6262 c-3 -5 1 -9 9 -9 8 0 12 4 9 9 -3 4 -7 8 -9 8 -2 0 -6 -4
-9 -8z"/>
<path d="M5340 6106 c0 -2 16 -16 35 -30 19 -15 35 -23 35 -19 0 4 -16 18 -35
31 -19 12 -35 20 -35 18z"/>
<path d="M5459 5913 c-1 -56 -3 -68 -8 -43 -5 27 -8 14 -14 -60 -7 -84 -6 -96
10 -107 14 -11 20 -11 31 0 10 11 11 35 3 125 -5 62 -7 120 -4 131 3 10 0 22
-6 25 -8 5 -11 -18 -12 -71z"/>
<path d="M1336 5543 c-35 -119 -41 -305 -19 -530 9 -88 23 -121 24 -57 0 21 3
33 6 27 7 -18 23 -16 23 3 0 8 4 13 9 10 16 -10 21 37 21 216 l0 177 38 27
c20 16 41 31 45 35 7 5 -123 109 -137 109 -3 0 -7 -8 -10 -17z"/>
<path d="M1309 4330 c-46 -57 -105 -117 -149 -150 -40 -30 -91 -71 -113 -90
l-39 -36 -4 -89 c-3 -50 0 -97 5 -105 14 -21 118 -15 151 9 32 23 37 50 39
187 l1 111 33 1 c17 1 47 6 65 11 45 13 76 -15 70 -65 -3 -24 -1 -31 7 -23 10
10 20 230 13 299 l-3 35 -76 -95z"/>
<path d="M1030 2846 l0 -347 78 3 77 3 3 338 2 337 -42 0 c-24 0 -60 3 -80 6
l-38 7 0 -347z"/>
<path d="M1430 3166 c0 -2 8 -10 18 -17 15 -13 16 -12 3 4 -13 16 -21 21 -21
13z"/>
<path d="M1570 2980 c5 -97 22 -133 40 -86 5 15 10 36 10 46 0 10 5 31 11 47
9 25 7 30 -23 55 -18 15 -35 28 -38 28 -3 0 -3 -40 0 -90z"/>
<path d="M1361 2994 c0 -11 3 -14 6 -6 3 7 2 16 -1 19 -3 4 -6 -2 -5 -13z"/>
<path d="M1828 2966 c-29 -28 -21 -47 10 -27 8 5 12 17 10 26 -3 18 -4 18 -20
1z"/>
<path d="M1332 2663 c5 -308 38 -280 38 33 0 125 -1 134 -21 145 l-21 11 4
-189z"/>
<path d="M1020 2264 c0 -13 48 -59 55 -52 3 2 -9 17 -25 33 -17 16 -30 24 -30
19z"/>
<path d="M955 1914 c33 -31 121 -107 195 -170 74 -64 139 -124 144 -135 9 -20
27 -21 33 -3 2 6 -56 59 -129 120 -73 60 -167 139 -210 177 -92 81 -118 89
-33 11z"/>
<path d="M3259 860 c-8 -21 0 -40 16 -40 8 0 17 -5 21 -12 5 -8 2 -9 -11 -4
-21 8 -65 -18 -65 -39 0 -19 19 -19 44 0 11 8 26 15 34 15 7 0 20 6 27 14 12
11 10 17 -10 36 -13 12 -28 19 -34 16 -5 -3 -11 2 -13 11 -3 15 -5 15 -9 3z"/>
<path d="M3420 820 c0 -5 5 -10 11 -10 5 0 7 5 4 10 -3 6 -8 10 -11 10 -2 0
-4 -4 -4 -10z"/>
<path d="M3006 785 c4 -8 10 -15 15 -15 4 0 6 7 3 15 -4 8 -10 15 -15 15 -4 0
-6 -7 -3 -15z"/>
</g>
</svg>
